# File created by Blade
# Date/Time:  Tue Jan 27 17:01:38 2015
# Frame Rate: 120.000 fps
#------------------------------------------------------
:FULLY-SPECIFIED
:DEGREES
3623
root -0.439308 36.911066 5.258234 7.163204 -2.743007 -0.600544
Spine -4.247057 8.862743 -0.218628
Head -5.773144 0.825619 0.792582
LeftShoulder -8.813883 -10.047822 11.131785
LeftArm 3.410321 -13.743610 -29.219922
LeftForeArm 23.476681 -0.000000 9.056203
LeftHand -14.827259 -0.000000 -11.462173
LeftHandThumb1 -26.253704 0.000000 33.147579
RightShoulder -6.925216 -12.667931 -12.429034
RightArm 5.520325 19.208616 29.921482
RightForeArm -173.545051 -0.000000 16.736372
RightHand -1.455110 -0.000000 1.055543
RightHandThumb1 -24.326973 -0.000000 -32.862282
LeftUpLeg -4.392087 14.556187 3.394713
LeftLeg 8.199325 -0.000000 -0.000000
LeftFoot -17.634403 4.666712 -20.716172
LeftToeBase 14.561357 -0.000000 -0.000000
RightUpLeg -6.932697 -7.963231 -2.010907
RightLeg 10.078912 -0.000000 -0.000000
RightFoot -15.025285 -3.389860 13.917624
RightToeBase 10.911391 -0.000000 -0.000000
3624
root -0.442476 36.914497 5.263678 7.186146 -2.644032 -0.578594
Spine -4.295364 8.907905 -0.246061
Head -5.601498 0.792281 0.755064
LeftShoulder -8.835946 -10.120651 11.525529
LeftArm 3.442180 -13.813163 -27.974670
LeftForeArm 23.152258 0.000000 9.164643
LeftHand -15.460971 -0.000000 -10.023815
LeftHandThumb1 -26.253704 0.000000 33.147579
RightShoulder -7.044623 -12.336300 -12.923988
RightArm 5.013366 20.495437 29.131928
RightForeArm -172.952184 -0.000000 16.579141
RightHand -1.706456 -0.000000 2.125689
RightHandThumb1 -24.326973 -0.000000 -32.862282
LeftUpLeg -4.403954 14.517461 3.384744
LeftLeg 8.147878 -0.000000 -0.000000
LeftFoot -17.637470 4.589180 -20.937450
LeftToeBase 14.871235 -0.000000 -0.000000
RightUpLeg -6.922587 -7.993775 -2.017411
RightLeg 10.058352 -0.000000 -0.000000
RightFoot -15.027357 -3.471806 13.944210
RightToeBase 10.871880 -0.000000 -0.000000
3625
root -0.444803 36.917307 5.268582 7.217590 -2.515903 -0.563091
Spine -4.351328 8.919116 -0.253823
Head -5.405496 0.762080 0.714284
LeftShoulder -8.873294 -10.111401 11.937933
LeftArm 3.532246 -13.881717 -26.893877
LeftForeArm 22.846011 -0.000000 9.272023
LeftHand -16.096780 0.000000 -8.295382
LeftHandThumb1 -26.253704 0.000000 33.147579
RightShoulder -7.161623 -12.117466 -13.417765
RightArm 4.591945 21.800174 28.433309
RightForeArm -172.059164 0.000000 16.513414
RightHand -1.920421 0.000000 3.327148
RightHandThumb1 -24.326973 -0.000000 -32.862282
LeftUpLeg -4.440322 14.447605 3.376349
LeftLeg 8.124027 -0.000000 -0.000000
LeftFoot -17.597443 4.558364 -20.934896
LeftToeBase 14.960654 -0.000000 -0.000000
RightUpLeg -6.917416 -8.060010 -2.016314
RightLeg 10.032098 -0.000000 -0.000000
RightFoot -15.024464 -3.537277 13.945128
RightToeBase 10.872332 -0.000000 -0.000000
3626
root -0.447794 36.919875 5.272178 7.225874 -2.338670 -0.550485
Spine -4.369090 8.868799 -0.241530
Head -5.235582 0.739649 0.652754
LeftShoulder -8.892443 -10.373896 12.430321
LeftArm 3.418800 -13.841659 -25.879899
LeftForeArm 22.815969 -0.000000 9.406933
LeftHand -16.188574 -0.000000 -6.719891
LeftHandThumb1 -26.253704 0.000000 33.147579
RightShoulder -7.278252 -11.775977 -13.885616
RightArm 4.170740 22.859697 27.664171
RightForeArm -171.403283 -0.000000 16.404841
RightHand -2.306255 -0.000000 4.411679
RightHandThumb1 -24.326973 -0.000000 -32.862282
LeftUpLeg -4.468113 14.325108 3.377726
LeftLeg 8.117160 -0.000000 -0.000000
LeftFoot -17.457059 4.560090 -20.688951
LeftToeBase 14.642437 -0.000000 -0.000000
RightUpLeg -6.889406 -8.198432 -2.003108
RightLeg 10.009929 -0.000000 -0.000000
RightFoot -15.037170 -3.544187 13.987027
RightToeBase 10.883789 -0.000000 -0.000000
